<?xml version="1.0" encoding="UTF-8" standalone="no"?>
<!DOCTYPE svg PUBLIC "-//W3C//DTD SVG 1.1//EN"
 "http://www.w3.org/Graphics/SVG/1.1/DTD/svg11.dtd">
<!-- Generated by graphviz version 2.47.0 (20210316.0004)
 -->
<!-- Title: dependencies Pages: 1 -->
<svg width="1298pt" height="211pt"
 viewBox="0.00 0.00 1298.00 211.00" xmlns="http://www.w3.org/2000/svg" xmlns:xlink="http://www.w3.org/1999/xlink">
<g id="graph0" class="graph" transform="scale(1 1) rotate(0) translate(4 207)">
<title>dependencies</title>
<polygon fill="white" stroke="transparent" points="-4,4 -4,-207 1294,-207 1294,4 -4,4"/>
<text text-anchor="start" x="624.01" y="-42.4" font-family="Times-12" font-weight="bold" font-size="14.00">Legend</text>
<polygon fill="#ffffb3" stroke="transparent" points="411,-10 411,-30 431,-30 431,-10 411,-10"/>
<text text-anchor="start" x="434.63" y="-15.4" font-family="Times-12" font-size="14.00"> &#160;Declarations</text>
<polygon fill="#8dd3c7" stroke="transparent" points="524,-10 524,-30 544,-30 544,-10 524,-10"/>
<text text-anchor="start" x="547.73" y="-15.4" font-family="Times-12" font-size="14.00"> &#160;Module</text>
<polygon fill="#80b1d3" stroke="transparent" points="610,-10 610,-30 630,-30 630,-10 610,-10"/>
<text text-anchor="start" x="633.78" y="-15.4" font-family="Times-12" font-size="14.00"> &#160;Bootstrap</text>
<polygon fill="#fdb462" stroke="transparent" points="707,-10 707,-30 727,-30 727,-10 707,-10"/>
<text text-anchor="start" x="730.67" y="-15.4" font-family="Times-12" font-size="14.00"> &#160;Providers</text>
<polygon fill="#fb8072" stroke="transparent" points="803,-10 803,-30 823,-30 823,-10 803,-10"/>
<text text-anchor="start" x="826.73" y="-15.4" font-family="Times-12" font-size="14.00"> &#160;Exports</text>
<g id="clust1" class="cluster">
<title>cluster_FilmModule</title>
<polygon fill="none" stroke="black" stroke-dasharray="1,5" points="8,-70 8,-195 1282,-195 1282,-70 8,-70"/>
</g>
<g id="clust10" class="cluster">
<title>cluster_FilmModule_imports</title>
<polygon fill="none" stroke="black" points="1002,-78 1002,-130 1274,-130 1274,-78 1002,-78"/>
</g>
<g id="clust2" class="cluster">
<title>cluster_FilmModule_declarations</title>
<polygon fill="none" stroke="black" points="16,-78 16,-130 994,-130 994,-78 16,-78"/>
</g>
<!-- CardComponent -->
<g id="node1" class="node">
<title>CardComponent</title>
<polygon fill="#ffffb3" stroke="black" points="986.05,-122 877.95,-122 877.95,-86 986.05,-86 986.05,-122"/>
<text text-anchor="middle" x="932" y="-99.8" font-family="Times,serif" font-size="14.00">CardComponent</text>
</g>
<!-- FilmModule -->
<g id="node8" class="node">
<title>FilmModule</title>
<polygon fill="#8dd3c7" stroke="black" points="710,-187 707,-191 686,-191 683,-187 624,-187 624,-151 710,-151 710,-187"/>
<text text-anchor="middle" x="667" y="-164.8" font-family="Times,serif" font-size="14.00">FilmModule</text>
</g>
<!-- CardComponent&#45;&gt;FilmModule -->
<g id="edge1" class="edge">
<title>CardComponent&#45;&gt;FilmModule</title>
<path fill="none" stroke="black" d="M932,-122.27C932,-140.56 932,-166 932,-166 932,-166 720.17,-166 720.17,-166"/>
<polygon fill="black" stroke="black" points="720.17,-162.5 710.17,-166 720.17,-169.5 720.17,-162.5"/>
</g>
<!-- FavPageComponent -->
<g id="node2" class="node">
<title>FavPageComponent</title>
<polygon fill="#ffffb3" stroke="black" points="859.54,-122 730.46,-122 730.46,-86 859.54,-86 859.54,-122"/>
<text text-anchor="middle" x="795" y="-99.8" font-family="Times,serif" font-size="14.00">FavPageComponent</text>
</g>
<!-- FavPageComponent&#45;&gt;FilmModule -->
<g id="edge2" class="edge">
<title>FavPageComponent&#45;&gt;FilmModule</title>
<path fill="none" stroke="black" d="M795,-122.01C795,-138.05 795,-159 795,-159 795,-159 720.33,-159 720.33,-159"/>
<polygon fill="black" stroke="black" points="720.33,-155.5 710.33,-159 720.33,-162.5 720.33,-155.5"/>
</g>
<!-- FilmImgPipe -->
<g id="node3" class="node">
<title>FilmImgPipe</title>
<polygon fill="#ffffb3" stroke="black" points="711.89,-122 622.11,-122 622.11,-86 711.89,-86 711.89,-122"/>
<text text-anchor="middle" x="667" y="-99.8" font-family="Times,serif" font-size="14.00">FilmImgPipe</text>
</g>
<!-- FilmImgPipe&#45;&gt;FilmModule -->
<g id="edge3" class="edge">
<title>FilmImgPipe&#45;&gt;FilmModule</title>
<path fill="none" stroke="black" d="M667,-122.11C667,-122.11 667,-140.99 667,-140.99"/>
<polygon fill="black" stroke="black" points="663.5,-140.99 667,-150.99 670.5,-140.99 663.5,-140.99"/>
</g>
<!-- FilmPageComponent -->
<g id="node4" class="node">
<title>FilmPageComponent</title>
<polygon fill="#ffffb3" stroke="black" points="604.5,-122 469.5,-122 469.5,-86 604.5,-86 604.5,-122"/>
<text text-anchor="middle" x="537" y="-99.8" font-family="Times,serif" font-size="14.00">FilmPageComponent</text>
</g>
<!-- FilmPageComponent&#45;&gt;FilmModule -->
<g id="edge4" class="edge">
<title>FilmPageComponent&#45;&gt;FilmModule</title>
<path fill="none" stroke="black" d="M537,-122.01C537,-138.05 537,-159 537,-159 537,-159 613.71,-159 613.71,-159"/>
<polygon fill="black" stroke="black" points="613.71,-162.5 623.71,-159 613.71,-155.5 613.71,-162.5"/>
</g>
<!-- GenreComponent -->
<g id="node5" class="node">
<title>GenreComponent</title>
<polygon fill="#ffffb3" stroke="black" points="451.53,-122 336.47,-122 336.47,-86 451.53,-86 451.53,-122"/>
<text text-anchor="middle" x="394" y="-99.8" font-family="Times,serif" font-size="14.00">GenreComponent</text>
</g>
<!-- GenreComponent&#45;&gt;FilmModule -->
<g id="edge5" class="edge">
<title>GenreComponent&#45;&gt;FilmModule</title>
<path fill="none" stroke="black" d="M394,-122.27C394,-140.56 394,-166 394,-166 394,-166 613.74,-166 613.74,-166"/>
<polygon fill="black" stroke="black" points="613.74,-169.5 623.74,-166 613.74,-162.5 613.74,-169.5"/>
</g>
<!-- ListPageComponent -->
<g id="node6" class="node">
<title>ListPageComponent</title>
<polygon fill="#ffffb3" stroke="black" points="318.32,-122 187.68,-122 187.68,-86 318.32,-86 318.32,-122"/>
<text text-anchor="middle" x="253" y="-99.8" font-family="Times,serif" font-size="14.00">ListPageComponent</text>
</g>
<!-- ListPageComponent&#45;&gt;FilmModule -->
<g id="edge6" class="edge">
<title>ListPageComponent&#45;&gt;FilmModule</title>
<path fill="none" stroke="black" d="M253,-122.13C253,-142.57 253,-173 253,-173 253,-173 613.87,-173 613.87,-173"/>
<polygon fill="black" stroke="black" points="613.87,-176.5 623.87,-173 613.87,-169.5 613.87,-176.5"/>
</g>
<!-- SearchPageComponent -->
<g id="node7" class="node">
<title>SearchPageComponent</title>
<polygon fill="#ffffb3" stroke="black" points="170.13,-122 23.87,-122 23.87,-86 170.13,-86 170.13,-122"/>
<text text-anchor="middle" x="97" y="-99.8" font-family="Times,serif" font-size="14.00">SearchPageComponent</text>
</g>
<!-- SearchPageComponent&#45;&gt;FilmModule -->
<g id="edge7" class="edge">
<title>SearchPageComponent&#45;&gt;FilmModule</title>
<path fill="none" stroke="black" d="M97,-122.01C97,-144.49 97,-180 97,-180 97,-180 613.69,-180 613.69,-180"/>
<polygon fill="black" stroke="black" points="613.69,-183.5 623.69,-180 613.69,-176.5 613.69,-183.5"/>
</g>
<!-- FilmRoutingModule -->
<g id="node9" class="node">
<title>FilmRoutingModule</title>
<polygon fill="#8dd3c7" stroke="black" points="1265.62,-122 1262.62,-126 1241.62,-126 1238.62,-122 1134.38,-122 1134.38,-86 1265.62,-86 1265.62,-122"/>
<text text-anchor="middle" x="1200" y="-99.8" font-family="Times,serif" font-size="14.00">FilmRoutingModule</text>
</g>
<!-- FilmRoutingModule&#45;&gt;FilmModule -->
<g id="edge8" class="edge">
<title>FilmRoutingModule&#45;&gt;FilmModule</title>
<path fill="none" stroke="black" d="M1200,-122.01C1200,-144.49 1200,-180 1200,-180 1200,-180 720.17,-180 720.17,-180"/>
<polygon fill="black" stroke="black" points="720.17,-176.5 710.17,-180 720.17,-183.5 720.17,-176.5"/>
</g>
<!-- MaterialModule -->
<g id="node10" class="node">
<title>MaterialModule</title>
<polygon fill="#8dd3c7" stroke="black" points="1116.47,-122 1113.47,-126 1092.47,-126 1089.47,-122 1009.53,-122 1009.53,-86 1116.47,-86 1116.47,-122"/>
<text text-anchor="middle" x="1063" y="-99.8" font-family="Times,serif" font-size="14.00">MaterialModule</text>
</g>
<!-- MaterialModule&#45;&gt;FilmModule -->
<g id="edge9" class="edge">
<title>MaterialModule&#45;&gt;FilmModule</title>
<path fill="none" stroke="black" d="M1063,-122.13C1063,-142.57 1063,-173 1063,-173 1063,-173 720.13,-173 720.13,-173"/>
<polygon fill="black" stroke="black" points="720.13,-169.5 710.13,-173 720.13,-176.5 720.13,-169.5"/>
</g>
</g>
</svg>
