<?xml version="1.0" encoding="UTF-8" standalone="no"?>
<!DOCTYPE svg PUBLIC "-//W3C//DTD SVG 1.1//EN"
 "http://www.w3.org/Graphics/SVG/1.1/DTD/svg11.dtd">
<!-- Generated by graphviz version 2.47.0 (20210316.0004)
 -->
<!-- Title: dependencies Pages: 1 -->
<svg width="645pt" height="211pt"
 viewBox="0.00 0.00 645.00 211.00" xmlns="http://www.w3.org/2000/svg" xmlns:xlink="http://www.w3.org/1999/xlink">
<g id="graph0" class="graph" transform="scale(1 1) rotate(0) translate(4 207)">
<title>dependencies</title>
<polygon fill="white" stroke="transparent" points="-4,4 -4,-207 641,-207 641,4 -4,4"/>
<text text-anchor="start" x="297.51" y="-42.4" font-family="Times-12" font-weight="bold" font-size="14.00">Legend</text>
<polygon fill="#ffffb3" stroke="transparent" points="84.5,-10 84.5,-30 104.5,-30 104.5,-10 84.5,-10"/>
<text text-anchor="start" x="108.13" y="-15.4" font-family="Times-12" font-size="14.00"> &#160;Declarations</text>
<polygon fill="#8dd3c7" stroke="transparent" points="197.5,-10 197.5,-30 217.5,-30 217.5,-10 197.5,-10"/>
<text text-anchor="start" x="221.23" y="-15.4" font-family="Times-12" font-size="14.00"> &#160;Module</text>
<polygon fill="#80b1d3" stroke="transparent" points="283.5,-10 283.5,-30 303.5,-30 303.5,-10 283.5,-10"/>
<text text-anchor="start" x="307.28" y="-15.4" font-family="Times-12" font-size="14.00"> &#160;Bootstrap</text>
<polygon fill="#fdb462" stroke="transparent" points="380.5,-10 380.5,-30 400.5,-30 400.5,-10 380.5,-10"/>
<text text-anchor="start" x="404.17" y="-15.4" font-family="Times-12" font-size="14.00"> &#160;Providers</text>
<polygon fill="#fb8072" stroke="transparent" points="476.5,-10 476.5,-30 496.5,-30 496.5,-10 476.5,-10"/>
<text text-anchor="start" x="500.23" y="-15.4" font-family="Times-12" font-size="14.00"> &#160;Exports</text>
<g id="clust1" class="cluster">
<title>cluster_AuthModule</title>
<polygon fill="none" stroke="black" stroke-dasharray="1,5" points="8,-70 8,-195 629,-195 629,-70 8,-70"/>
</g>
<g id="clust2" class="cluster">
<title>cluster_AuthModule_declarations</title>
<polygon fill="none" stroke="black" points="297,-78 297,-130 621,-130 621,-78 297,-78"/>
</g>
<g id="clust5" class="cluster">
<title>cluster_AuthModule_imports</title>
<polygon fill="none" stroke="black" points="16,-78 16,-130 289,-130 289,-78 16,-78"/>
</g>
<!-- LayoutPageComponent -->
<g id="node1" class="node">
<title>LayoutPageComponent</title>
<polygon fill="#ffffb3" stroke="black" points="613.2,-122 464.8,-122 464.8,-86 613.2,-86 613.2,-122"/>
<text text-anchor="middle" x="539" y="-99.8" font-family="Times,serif" font-size="14.00">LayoutPageComponent</text>
</g>
<!-- AuthModule -->
<g id="node3" class="node">
<title>AuthModule</title>
<polygon fill="#8dd3c7" stroke="black" points="338.55,-187 335.55,-191 314.55,-191 311.55,-187 251.45,-187 251.45,-151 338.55,-151 338.55,-187"/>
<text text-anchor="middle" x="295" y="-164.8" font-family="Times,serif" font-size="14.00">AuthModule</text>
</g>
<!-- LayoutPageComponent&#45;&gt;AuthModule -->
<g id="edge1" class="edge">
<title>LayoutPageComponent&#45;&gt;AuthModule</title>
<path fill="none" stroke="black" d="M539,-122.11C539,-141.34 539,-169 539,-169 539,-169 348.62,-169 348.62,-169"/>
<polygon fill="black" stroke="black" points="348.62,-165.5 338.62,-169 348.62,-172.5 348.62,-165.5"/>
</g>
<!-- LoginPageComponent -->
<g id="node2" class="node">
<title>LoginPageComponent</title>
<polygon fill="#ffffb3" stroke="black" points="446.99,-122 305.01,-122 305.01,-86 446.99,-86 446.99,-122"/>
<text text-anchor="middle" x="376" y="-99.8" font-family="Times,serif" font-size="14.00">LoginPageComponent</text>
</g>
<!-- LoginPageComponent&#45;&gt;AuthModule -->
<g id="edge2" class="edge">
<title>LoginPageComponent&#45;&gt;AuthModule</title>
<path fill="none" stroke="black" d="M321.89,-122.11C321.89,-122.11 321.89,-140.99 321.89,-140.99"/>
<polygon fill="black" stroke="black" points="318.39,-140.99 321.89,-150.99 325.39,-140.99 318.39,-140.99"/>
</g>
<!-- AuthRoutingModule -->
<g id="node4" class="node">
<title>AuthRoutingModule</title>
<polygon fill="#8dd3c7" stroke="black" points="281.17,-122 278.17,-126 257.17,-126 254.17,-122 148.83,-122 148.83,-86 281.17,-86 281.17,-122"/>
<text text-anchor="middle" x="215" y="-99.8" font-family="Times,serif" font-size="14.00">AuthRoutingModule</text>
</g>
<!-- AuthRoutingModule&#45;&gt;AuthModule -->
<g id="edge3" class="edge">
<title>AuthRoutingModule&#45;&gt;AuthModule</title>
<path fill="none" stroke="black" d="M266.28,-122.11C266.28,-122.11 266.28,-140.99 266.28,-140.99"/>
<polygon fill="black" stroke="black" points="262.78,-140.99 266.28,-150.99 269.78,-140.99 262.78,-140.99"/>
</g>
<!-- MaterialModule -->
<g id="node5" class="node">
<title>MaterialModule</title>
<polygon fill="#8dd3c7" stroke="black" points="130.47,-122 127.47,-126 106.47,-126 103.47,-122 23.53,-122 23.53,-86 130.47,-86 130.47,-122"/>
<text text-anchor="middle" x="77" y="-99.8" font-family="Times,serif" font-size="14.00">MaterialModule</text>
</g>
<!-- MaterialModule&#45;&gt;AuthModule -->
<g id="edge4" class="edge">
<title>MaterialModule&#45;&gt;AuthModule</title>
<path fill="none" stroke="black" d="M77,-122.11C77,-141.34 77,-169 77,-169 77,-169 241.41,-169 241.41,-169"/>
<polygon fill="black" stroke="black" points="241.41,-172.5 251.41,-169 241.41,-165.5 241.41,-172.5"/>
</g>
</g>
</svg>
